<svg width="175" height="175" viewBox="0 0 175 175" fill="none" xmlns="http://www.w3.org/2000/svg">
<g opacity="0.5">
<path d="M104.635 151.484L65.625 137.812L31.7187 150.938C29.2882 151.91 27.0399 151.637 24.974 150.121C22.908 148.604 21.875 146.567 21.875 144.01V41.9271C21.875 40.3472 22.3319 38.9497 23.2458 37.7344C24.1597 36.5191 25.4042 35.6076 26.9792 35L60.8854 23.5156C62.4653 23.0295 64.0451 22.7549 65.625 22.6917C67.2049 22.6285 68.7847 22.9031 70.3646 23.5156L109.375 37.1875L143.281 24.0625C145.712 23.0903 147.96 23.3649 150.026 24.8865C152.092 26.408 153.125 28.4424 153.125 30.9896V133.073C153.125 134.653 152.67 136.05 151.761 137.266C150.852 138.481 149.606 139.392 148.021 140L114.115 151.484C112.535 151.97 110.955 152.245 109.375 152.308C107.795 152.372 106.215 152.097 104.635 151.484ZM102.083 135.26V49.9479L72.9167 39.7396V125.052L102.083 135.26ZM116.667 135.26L138.542 127.969V41.5625L116.667 49.9479V135.26ZM36.4583 133.437L58.3333 125.052V39.7396L36.4583 47.0313V133.437Z" fill="#7E56DA"/>
</g>
</svg>
