<svg width="24" height="24" viewBox="0 0 24 24" fill="none" xmlns="http://www.w3.org/2000/svg">
<g clip-path="url(#clip0_2_54)">
<path d="M12.917 22.1578C12.6615 22.3836 12.3345 22.5119 11.9937 22.5201C11.6436 22.5248 11.3036 22.4023 11.0368 22.1754C10.8721 22.0352 10.7421 21.861 10.6548 21.6667H13.2786C13.195 21.8529 13.0722 22.0207 12.917 22.1578Z" stroke="#202020" stroke-width="0.666667"/>
<path d="M20.9 19.6333H3.03333V19.2007C3.69062 18.5885 4.26757 17.8951 4.7502 17.1371L4.77552 17.0973L4.79699 17.0553C5.36814 15.9384 5.71047 14.7187 5.80388 13.4678L5.80666 13.4306V13.3933L5.80666 10.1L5.80666 10.0976C5.80305 8.59911 6.3417 7.14992 7.32314 6.01757C8.30458 4.88521 9.66255 4.14616 11.1463 3.93685L11.9851 3.81854L12.6592 3.90516C13.1195 3.96432 13.5708 4.07618 14.0044 4.23811C14.0539 5.53615 14.5237 6.78556 15.3464 7.7964C16.0645 8.67869 17.0151 9.33465 18.0837 9.6948C18.0936 9.83076 18.099 9.96707 18.1 10.1035V13.3933V13.4306L18.1028 13.4678C18.1962 14.7187 18.5385 15.9384 19.1097 17.0553L19.1327 17.1003L19.1601 17.1427C19.65 17.9008 20.2347 18.5929 20.9 19.2023V19.6333Z" stroke="#202020" stroke-width="2"/>
<path d="M20 7.33332C21.841 7.33332 23.3334 5.84094 23.3334 3.99999C23.3334 2.15904 21.841 0.666656 20 0.666656C18.1591 0.666656 16.6667 2.15904 16.6667 3.99999C16.6667 5.84094 18.1591 7.33332 20 7.33332Z" fill="#CD0000"/>
</g>
<defs>
<clipPath id="clip0_2_54">
<rect width="24" height="24" fill="white"/>
</clipPath>
</defs>
</svg>
